# xmcd
#
# Track frame offsets:
#	150
#	18253
#	36844
#	51948
#	74842
#	87925
#	105723
#	121395
#	154982
#	168229
#	204795
#	236406
#	254589
#	270223
#	288491
#	301631
#	317327
#	329077
#
# Disc length: 4617 seconds
#
# Revision: 1
# Processed by: cddbd v1.5.2PL0 Copyright (c) Steve Scherf et al.
# Submitted via: audiograbber 1.83.01
#
DISCID=f6120712
DTITLE=Cure, The - Live In Japan
DYEAR=1984
DGENRE=Post Punk
TTITLE0=Shake Dog Shake
TTITLE1=Play For Today
TTITLE2=Primary
TTITLE3=Wailing Wall
TTITLE4=The Empty World
TTITLE5=The Hanging Garden
TTITLE6=The Walk
TTITLE7=One Hundred Years
TTITLE8=Give Me It
TTITLE9=A Forest
TTITLE10=The Top
TTITLE11=Charlotte Sometimes
TTITLE12=Let's Go To Bed
TTITLE13=The Caterpillar
TTITLE14=Boy's Don't Cry
TTITLE15=10.15 Saturday Night
TTITLE16=Killing An Arab
TTITLE17=The Lovecats
EXTD=
EXTT0=
EXTT1=
EXTT2=
EXTT3=
EXTT4=
EXTT5=
EXTT6=
EXTT7=
EXTT8=
EXTT9=
EXTT10=
EXTT11=
EXTT12=
EXTT13=
EXTT14=
EXTT15=
EXTT16=
EXTT17=
PLAYORDER=
